<svg width="14" height="14" viewBox="0 0 14 14" fill="none" xmlns="http://www.w3.org/2000/svg">
<g clip-path="url(#clip0_91_11423)">
<path d="M3.44488 2.43359L3.34138 1.50186C3.24628 0.645641 2.52492 0 1.66348 0C0.746238 0 0 0.746238 0 1.66348V2.24219H1.09375V1.66348C1.09375 1.34933 1.34933 1.09375 1.66348 1.09375C1.96684 1.09375 2.22083 1.32109 2.2543 1.62261L3.23572 10.4589H3.23578C3.31256 11.1713 3.85153 11.7277 4.53636 11.8442C4.46857 12.013 4.42969 12.1952 4.42969 12.3867C4.42969 13.2763 5.15339 14 6.04297 14C6.93254 14 7.65625 13.2763 7.65625 12.3867C7.65625 12.205 7.6256 12.0303 7.56993 11.8672H10.0394C9.98378 12.0303 9.95312 12.205 9.95312 12.3867C9.95312 13.2763 10.6768 14 11.5664 14C12.456 14 13.1797 13.2763 13.1797 12.3867C13.1797 11.4972 12.456 10.7734 11.5664 10.7734C11.5296 10.7734 4.80408 10.7734 4.80408 10.7734C4.55604 10.7734 4.34927 10.5874 4.3231 10.3408C4.29513 10.077 4.48689 9.83839 4.75092 9.80902L12.5418 8.93741C13.3731 8.84439 14 8.14346 14 7.30696V2.43359H3.44488ZM6.5625 12.3867C6.5625 12.6732 6.32945 12.9062 6.04297 12.9062C5.75649 12.9062 5.52344 12.6732 5.52344 12.3867C5.52344 12.113 5.87631 11.8672 6.04297 11.8672C6.32945 11.8672 6.5625 12.1002 6.5625 12.3867ZM12.0859 12.3867C12.0859 12.6732 11.8529 12.9062 11.5664 12.9062C11.2799 12.9062 11.0469 12.6732 11.0469 12.3867C11.0469 12.1002 11.2799 11.8672 11.5664 11.8672C11.8529 11.8672 12.0859 12.1002 12.0859 12.3867ZM12.9062 7.30696C12.9062 7.58579 12.6973 7.81944 12.4202 7.85044L4.62965 8.72203C4.4622 8.74065 4.3038 8.78547 4.1577 8.85139L3.56636 3.52734H12.9062V7.30696Z" fill="white"/>
</g>
<defs>
<clipPath id="clip0_91_11423">
<rect width="14" height="14" fill="white"/>
</clipPath>
</defs>
</svg>
