<svg width="24" height="25" viewBox="0 0 24 25" fill="none" xmlns="http://www.w3.org/2000/svg">
<path fill-rule="evenodd" clip-rule="evenodd" d="M1.5 5.15332C1.5 3.49647 2.84315 2.15332 4.5 2.15332H5.87163C6.732 2.15332 7.48197 2.73888 7.69064 3.57357L8.79644 7.99675C8.97941 8.72862 8.70594 9.49887 8.10242 9.9515L6.8088 10.9217C6.67447 11.0225 6.64527 11.17 6.683 11.273C7.81851 14.3728 10.2805 16.8348 13.3803 17.9703C13.4833 18.0081 13.6309 17.9788 13.7316 17.8445L14.7018 16.5509C15.1545 15.9474 15.9247 15.6739 16.6566 15.8569L21.0798 16.9627C21.9144 17.1713 22.5 17.9213 22.5 18.7817V20.1533C22.5 21.8102 21.1569 23.1533 19.5 23.1533H17.25C8.55151 23.1533 1.5 16.1018 1.5 7.40332V5.15332Z" fill="#2B6EB5"/>
</svg>
