<svg width="24" height="25" viewBox="0 0 24 25" fill="none" xmlns="http://www.w3.org/2000/svg">
<g clip-path="url(#clip0_521_1191)">
<path d="M24 12.1533C24 5.5259 18.6274 0.15332 12 0.15332C5.37258 0.15332 0 5.5259 0 12.1533C0 18.1428 4.3882 23.1073 10.125 24.0075V15.6221H7.07812V12.1533H10.125V9.50957C10.125 6.50207 11.9166 4.84082 14.6576 4.84082C15.9701 4.84082 17.3438 5.07519 17.3438 5.07519V8.02832H15.8306C14.34 8.02832 13.875 8.9534 13.875 9.90332V12.1533H17.2031L16.6711 15.6221H13.875V24.0075C19.6118 23.1073 24 18.1428 24 12.1533Z" fill="#333333"/>
</g>
<defs>
<clipPath id="clip0_521_1191">
<rect width="24" height="24" fill="white" transform="translate(0 0.15332)"/>
</clipPath>
</defs>
</svg>
