<svg width="24" height="25" viewBox="0 0 24 25" fill="none" xmlns="http://www.w3.org/2000/svg">
<g clip-path="url(#clip0_521_1197)">
<path d="M22.2234 0.15332H1.77187C0.792187 0.15332 0 0.926758 0 1.88301V22.4189C0 23.3752 0.792187 24.1533 1.77187 24.1533H22.2234C23.2031 24.1533 24 23.3752 24 22.4236V1.88301C24 0.926758 23.2031 0.15332 22.2234 0.15332ZM7.12031 20.6049H3.55781V9.14863H7.12031V20.6049ZM5.33906 7.5877C4.19531 7.5877 3.27188 6.66426 3.27188 5.5252C3.27188 4.38613 4.19531 3.4627 5.33906 3.4627C6.47813 3.4627 7.40156 4.38613 7.40156 5.5252C7.40156 6.65957 6.47813 7.5877 5.33906 7.5877ZM20.4516 20.6049H16.8937V15.0361C16.8937 13.7096 16.8703 11.9986 15.0422 11.9986C13.1906 11.9986 12.9094 13.4471 12.9094 14.9424V20.6049H9.35625V9.14863H12.7687V10.7143H12.8156C13.2891 9.81426 14.4516 8.8627 16.1813 8.8627C19.7859 8.8627 20.4516 11.2346 20.4516 14.3189V20.6049Z" fill="#333333"/>
</g>
<defs>
<clipPath id="clip0_521_1197">
<rect width="24" height="24" fill="white" transform="translate(0 0.15332)"/>
</clipPath>
</defs>
</svg>
