<svg width="24" height="25" viewBox="0 0 24 25" fill="none" xmlns="http://www.w3.org/2000/svg">
<path fill-rule="evenodd" clip-rule="evenodd" d="M11.5397 22.5044C11.57 22.5219 11.5937 22.5354 11.6105 22.5448L11.6384 22.5604C11.8613 22.6828 12.1378 22.6818 12.3608 22.5608L12.3895 22.5448C12.4063 22.5354 12.43 22.5219 12.4603 22.5044C12.5207 22.4694 12.607 22.4183 12.7155 22.3515C12.9325 22.2179 13.2388 22.0209 13.6046 21.7624C14.3351 21.2464 15.3097 20.4808 16.2865 19.4807C18.2307 17.4901 20.25 14.4995 20.25 10.6533C20.25 6.09697 16.5563 2.40332 12 2.40332C7.44365 2.40332 3.75 6.09697 3.75 10.6533C3.75 14.4995 5.76932 17.4901 7.71346 19.4807C8.69025 20.4808 9.66491 21.2464 10.3954 21.7624C10.7612 22.0209 11.0675 22.2179 11.2845 22.3515C11.393 22.4183 11.4793 22.4694 11.5397 22.5044ZM12 13.6533C13.6569 13.6533 15 12.3102 15 10.6533C15 8.99647 13.6569 7.65332 12 7.65332C10.3431 7.65332 9 8.99647 9 10.6533C9 12.3102 10.3431 13.6533 12 13.6533Z" fill="#2B6EB5"/>
</svg>
