<svg width="24" height="25" viewBox="0 0 24 25" fill="none" xmlns="http://www.w3.org/2000/svg">
<path d="M7.55016 21.9031C16.6045 21.9031 21.5583 14.3998 21.5583 7.89494C21.5583 7.684 21.5536 7.46837 21.5442 7.25744C22.5079 6.56054 23.3395 5.69733 24 4.70837C23.1025 5.10768 22.1496 5.36846 21.1739 5.48181C22.2013 4.86598 22.9705 3.89855 23.3391 2.75884C22.3726 3.33163 21.3156 3.73569 20.2134 3.95369C19.4708 3.16464 18.489 2.64219 17.4197 2.46713C16.3504 2.29206 15.2532 2.47413 14.2977 2.98517C13.3423 3.49622 12.5818 4.30778 12.1338 5.29439C11.6859 6.28099 11.5754 7.38769 11.8195 8.44337C9.86249 8.34517 7.94794 7.83678 6.19998 6.95117C4.45203 6.06557 2.90969 4.82251 1.67297 3.30259C1.0444 4.38632 0.852057 5.66872 1.13503 6.88917C1.418 8.10961 2.15506 9.17652 3.19641 9.87306C2.41463 9.84824 1.64998 9.63776 0.965625 9.259V9.31994C0.964925 10.4572 1.3581 11.5597 2.07831 12.4398C2.79852 13.32 3.80132 13.9236 4.91625 14.1481C4.19206 14.3462 3.43198 14.3751 2.69484 14.2324C3.00945 15.2105 3.62157 16.066 4.44577 16.6794C5.26997 17.2929 6.26512 17.6337 7.29234 17.6543C5.54842 19.0242 3.39417 19.7672 1.17656 19.7637C0.783287 19.7631 0.390399 19.739 0 19.6915C2.25286 21.1368 4.87353 21.9045 7.55016 21.9031Z" fill="#333333"/>
</svg>
