<svg width="32" height="32" viewBox="0 0 32 32" fill="none" xmlns="http://www.w3.org/2000/svg">
<path d="M16 9.33331V28" stroke="#9810FA" stroke-width="2.66667" stroke-linecap="round" stroke-linejoin="round"/>
<path d="M3.99935 24C3.64573 24 3.30659 23.8595 3.05654 23.6095C2.80649 23.3594 2.66602 23.0203 2.66602 22.6667V5.33333C2.66602 4.97971 2.80649 4.64057 3.05654 4.39052C3.30659 4.14048 3.64573 4 3.99935 4H10.666C12.0805 4 13.4371 4.5619 14.4373 5.5621C15.4374 6.56229 15.9993 7.91885 15.9993 9.33333C15.9993 7.91885 16.5613 6.56229 17.5614 5.5621C18.5616 4.5619 19.9182 4 21.3327 4H27.9993C28.353 4 28.6921 4.14048 28.9422 4.39052C29.1922 4.64057 29.3327 4.97971 29.3327 5.33333V22.6667C29.3327 23.0203 29.1922 23.3594 28.9422 23.6095C28.6921 23.8595 28.353 24 27.9993 24H19.9993C18.9385 24 17.9211 24.4214 17.1709 25.1716C16.4208 25.9217 15.9993 26.9391 15.9993 28C15.9993 26.9391 15.5779 25.9217 14.8278 25.1716C14.0776 24.4214 13.0602 24 11.9993 24H3.99935Z" stroke="#9810FA" stroke-width="2.66667" stroke-linecap="round" stroke-linejoin="round"/>
</svg>
