<svg width="17" height="16" viewBox="0 0 17 16" fill="none" xmlns="http://www.w3.org/2000/svg">
<g clip-path="url(#clip0_9456_3729)">
<path d="M2.29558 8.232C2.24002 8.08232 2.24002 7.91767 2.29558 7.768C2.83671 6.4559 3.75525 5.33402 4.93476 4.5446C6.11426 3.75517 7.50161 3.33374 8.92091 3.33374C10.3402 3.33374 11.7276 3.75517 12.9071 4.5446C14.0866 5.33402 15.0051 6.4559 15.5462 7.768C15.6018 7.91767 15.6018 8.08232 15.5462 8.232C15.0051 9.54409 14.0866 10.666 12.9071 11.4554C11.7276 12.2448 10.3402 12.6663 8.92091 12.6663C7.50161 12.6663 6.11426 12.2448 4.93476 11.4554C3.75525 10.666 2.83671 9.54409 2.29558 8.232Z" stroke="#0A0A0A" stroke-width="1.33333" stroke-linecap="round" stroke-linejoin="round"/>
<path d="M8.92188 10C10.0264 10 10.9219 9.10457 10.9219 8C10.9219 6.89543 10.0264 6 8.92188 6C7.81731 6 6.92188 6.89543 6.92188 8C6.92188 9.10457 7.81731 10 8.92188 10Z" stroke="#0A0A0A" stroke-width="1.33333" stroke-linecap="round" stroke-linejoin="round"/>
</g>
<defs>
<clipPath id="clip0_9456_3729">
<rect width="16" height="16" fill="white" transform="translate(0.921875)"/>
</clipPath>
</defs>
</svg>
