<svg width="33" height="32" viewBox="0 0 33 32" fill="none" xmlns="http://www.w3.org/2000/svg">
<path d="M20.6667 2.66669H8.66667C7.95942 2.66669 7.28115 2.94764 6.78105 3.44774C6.28095 3.94783 6 4.62611 6 5.33335V26.6667C6 27.3739 6.28095 28.0522 6.78105 28.5523C7.28115 29.0524 7.95942 29.3334 8.66667 29.3334H24.6667C25.3739 29.3334 26.0522 29.0524 26.5523 28.5523C27.0524 28.0522 27.3333 27.3739 27.3333 26.6667V9.33335L20.6667 2.66669Z" stroke="#155DFC" stroke-width="2.66667" stroke-linecap="round" stroke-linejoin="round"/>
<path d="M19.332 2.66669V8.00002C19.332 8.70726 19.613 9.38554 20.1131 9.88564C20.6132 10.3857 21.2915 10.6667 21.9987 10.6667H27.332" stroke="#155DFC" stroke-width="2.66667" stroke-linecap="round" stroke-linejoin="round"/>
<path d="M13.9987 12H11.332" stroke="#155DFC" stroke-width="2.66667" stroke-linecap="round" stroke-linejoin="round"/>
<path d="M21.9987 17.3333H11.332" stroke="#155DFC" stroke-width="2.66667" stroke-linecap="round" stroke-linejoin="round"/>
<path d="M21.9987 22.6667H11.332" stroke="#155DFC" stroke-width="2.66667" stroke-linecap="round" stroke-linejoin="round"/>
</svg>
