<svg width="49" height="49" viewBox="0 0 49 49" fill="none" xmlns="http://www.w3.org/2000/svg">
<g clip-path="url(#clip0_521_1020)">
<path d="M12.5001 0.371582C11.5533 0.371582 10.7858 1.13909 10.7858 2.0859V5.51444H14.2143V2.0859C14.2143 1.13909 13.4468 0.371582 12.5001 0.371582Z" fill="#F5F5FC"/>
<path d="M36.5 0.371582C35.5532 0.371582 34.7856 1.13909 34.7856 2.0859V5.51444H38.2142V2.0859C38.2143 1.13909 37.4468 0.371582 36.5 0.371582Z" fill="#F5F5FC"/>
<path d="M43.3571 5.51465H38.2143V12.3718C38.2143 13.3186 37.4468 14.0861 36.5 14.0861C35.5532 14.0861 34.7857 13.3186 34.7857 12.3718V5.51465H14.2142V12.3718C14.2142 13.3186 13.4467 14.0861 12.4999 14.0861C11.5531 14.0861 10.7856 13.3186 10.7856 12.3718V5.51465H5.64285C2.80253 5.51465 0.5 7.81718 0.5 10.6575V43.2289C0.5 46.0693 2.80253 48.3718 5.64285 48.3718H43.3571C46.1975 48.3718 48.5 46.0693 48.5 43.2289V10.6575C48.5 7.81718 46.1975 5.51465 43.3571 5.51465ZM45.0714 43.2289C45.0714 44.1757 44.3039 44.9433 43.357 44.9433H5.64285C4.69605 44.9433 3.92854 44.1757 3.92854 43.2289V20.9432H45.0714V43.2289Z" fill="#F5F5FC"/>
<path d="M14.2143 24.3716H10.7857C9.83892 24.3716 9.07141 25.1391 9.07141 26.0859C9.07141 27.0327 9.83892 27.8002 10.7857 27.8002H14.2143C15.1611 27.8002 15.9286 27.0327 15.9286 26.0859C15.9286 25.1391 15.1611 24.3716 14.2143 24.3716Z" fill="#F5F5FC"/>
<path d="M26.2143 24.3716H22.7857C21.8389 24.3716 21.0714 25.1391 21.0714 26.0859C21.0714 27.0327 21.8389 27.8002 22.7857 27.8002H26.2143C27.1611 27.8002 27.9286 27.0327 27.9286 26.0859C27.9286 25.1391 27.1611 24.3716 26.2143 24.3716Z" fill="#F5F5FC"/>
<path d="M38.2143 24.3716H34.7857C33.8389 24.3716 33.0714 25.1391 33.0714 26.0859C33.0714 27.0327 33.8389 27.8002 34.7857 27.8002H38.2143C39.1611 27.8002 39.9286 27.0327 39.9286 26.0859C39.9286 25.1391 39.161 24.3716 38.2143 24.3716Z" fill="#F5F5FC"/>
<path d="M14.2143 31.2285H10.7857C9.83892 31.2285 9.07141 31.996 9.07141 32.9428C9.07141 33.8896 9.83892 34.6572 10.7857 34.6572H14.2143C15.1611 34.6572 15.9286 33.8896 15.9286 32.9428C15.9286 31.996 15.1611 31.2285 14.2143 31.2285Z" fill="#F5F5FC"/>
<path d="M26.2143 31.2285H22.7857C21.8389 31.2285 21.0714 31.996 21.0714 32.9428C21.0714 33.8896 21.8389 34.6572 22.7857 34.6572H26.2143C27.1611 34.6572 27.9286 33.8896 27.9286 32.9428C27.9286 31.996 27.1611 31.2285 26.2143 31.2285Z" fill="#F5F5FC"/>
<path d="M38.2143 31.2285H34.7857C33.8389 31.2285 33.0714 31.996 33.0714 32.9428C33.0714 33.8896 33.8389 34.6572 34.7857 34.6572H38.2143C39.1611 34.6572 39.9286 33.8896 39.9286 32.9428C39.9285 31.996 39.161 31.2285 38.2143 31.2285Z" fill="#F5F5FC"/>
<path d="M14.2143 38.0859H10.7857C9.83892 38.0859 9.07141 38.8534 9.07141 39.8003C9.07141 40.7471 9.83892 41.5145 10.7857 41.5145H14.2143C15.1611 41.5145 15.9286 40.747 15.9286 39.8002C15.9286 38.8533 15.1611 38.0859 14.2143 38.0859Z" fill="#F5F5FC"/>
<path d="M26.2143 38.0859H22.7857C21.8389 38.0859 21.0714 38.8534 21.0714 39.8002C21.0714 40.7471 21.8389 41.5146 22.7857 41.5146H26.2143C27.1611 41.5146 27.9286 40.7471 27.9286 39.8002C27.9286 38.8534 27.1611 38.0859 26.2143 38.0859Z" fill="#F5F5FC"/>
<path d="M38.2143 38.0859H34.7857C33.8389 38.0859 33.0714 38.8534 33.0714 39.8002C33.0714 40.7471 33.8389 41.5146 34.7857 41.5146H38.2143C39.1611 41.5146 39.9286 40.7471 39.9286 39.8002C39.9286 38.8534 39.161 38.0859 38.2143 38.0859Z" fill="#F5F5FC"/>
</g>
<defs>
<clipPath id="clip0_521_1020">
<rect width="48" height="48" fill="white" transform="translate(0.5 0.371582)"/>
</clipPath>
</defs>
</svg>
