<svg width="34" height="47" viewBox="0 0 34 47" fill="none" xmlns="http://www.w3.org/2000/svg">
<g clip-path="url(#clip0_521_1012)">
<path d="M25.25 23.3716H8.75V29.1216H25.25V23.3716ZM32.8984 9.80518L24.4852 1.00049C24.0984 0.596191 23.5742 0.371582 23.0242 0.371582H22.5V11.8716H33.5V11.3235C33.5 10.7575 33.2852 10.2095 32.8984 9.80518ZM19.75 12.5903V0.371582H2.5625C1.41953 0.371582 0.5 1.33291 0.5 2.52783V44.2153C0.5 45.4103 1.41953 46.3716 2.5625 46.3716H31.4375C32.5805 46.3716 33.5 45.4103 33.5 44.2153V14.7466H21.8125C20.6781 14.7466 19.75 13.7763 19.75 12.5903ZM6 6.84033C6 6.44322 6.30766 6.12158 6.6875 6.12158H13.5625C13.9423 6.12158 14.25 6.44322 14.25 6.84033V8.27783C14.25 8.67494 13.9423 8.99658 13.5625 8.99658H6.6875C6.30766 8.99658 6 8.67494 6 8.27783V6.84033ZM6 12.5903C6 12.1932 6.30766 11.8716 6.6875 11.8716H13.5625C13.9423 11.8716 14.25 12.1932 14.25 12.5903V14.0278C14.25 14.4249 13.9423 14.7466 13.5625 14.7466H6.6875C6.30766 14.7466 6 14.4249 6 14.0278V12.5903ZM28 39.9028C28 40.2999 27.6923 40.6216 27.3125 40.6216H20.4375C20.0577 40.6216 19.75 40.2999 19.75 39.9028V38.4653C19.75 38.0682 20.0577 37.7466 20.4375 37.7466H27.3125C27.6923 37.7466 28 38.0682 28 38.4653V39.9028ZM28 21.9341V30.5591C28 31.3533 27.3847 31.9966 26.625 31.9966H7.375C6.61531 31.9966 6 31.3533 6 30.5591V21.9341C6 21.1399 6.61531 20.4966 7.375 20.4966H26.625C27.3847 20.4966 28 21.1399 28 21.9341Z" fill="white"/>
</g>
<defs>
<clipPath id="clip0_521_1012">
<rect width="33" height="46" fill="white" transform="translate(0.5 0.371582)"/>
</clipPath>
</defs>
</svg>
