<svg width="56" height="45" viewBox="0 0 56 45" fill="none" xmlns="http://www.w3.org/2000/svg">
<g clip-path="url(#clip0_521_1063)">
<path d="M8.75 19.6216C11.7836 19.6216 14.25 17.1552 14.25 14.1216C14.25 11.088 11.7836 8.62158 8.75 8.62158C5.71641 8.62158 3.25 11.088 3.25 14.1216C3.25 17.1552 5.71641 19.6216 8.75 19.6216ZM47.25 19.6216C50.2836 19.6216 52.75 17.1552 52.75 14.1216C52.75 11.088 50.2836 8.62158 47.25 8.62158C44.2164 8.62158 41.75 11.088 41.75 14.1216C41.75 17.1552 44.2164 19.6216 47.25 19.6216ZM50 22.3716H44.5C42.9875 22.3716 41.6211 22.9817 40.6242 23.97C44.0875 25.8692 46.5453 29.2981 47.0781 33.3716H52.75C54.2711 33.3716 55.5 32.1427 55.5 30.6216V27.8716C55.5 24.838 53.0336 22.3716 50 22.3716ZM28 22.3716C33.3195 22.3716 37.625 18.0661 37.625 12.7466C37.625 7.42705 33.3195 3.12158 28 3.12158C22.6805 3.12158 18.375 7.42705 18.375 12.7466C18.375 18.0661 22.6805 22.3716 28 22.3716ZM34.6 25.1216H33.8867C32.0992 25.981 30.1141 26.4966 28 26.4966C25.8859 26.4966 23.9094 25.981 22.1133 25.1216H21.4C15.9344 25.1216 11.5 29.556 11.5 35.0216V37.4966C11.5 39.7739 13.3477 41.6216 15.625 41.6216H40.375C42.6523 41.6216 44.5 39.7739 44.5 37.4966V35.0216C44.5 29.556 40.0656 25.1216 34.6 25.1216ZM15.3758 23.97C14.3789 22.9817 13.0125 22.3716 11.5 22.3716H6C2.96641 22.3716 0.5 24.838 0.5 27.8716V30.6216C0.5 32.1427 1.72891 33.3716 3.25 33.3716H8.91328C9.45469 29.2981 11.9125 25.8692 15.3758 23.97Z" fill="white"/>
</g>
<defs>
<clipPath id="clip0_521_1063">
<rect width="55" height="44" fill="white" transform="translate(0.5 0.371582)"/>
</clipPath>
</defs>
</svg>
