<svg width="24" height="25" viewBox="0 0 24 25" fill="none" xmlns="http://www.w3.org/2000/svg">
<g clip-path="url(#clip0_521_627)">
<path d="M21.0278 8.56532C18.9768 -0.815494 5.38607 1.97343 3.04687 10.0625C1.52821 11.6908 2.84507 19.5327 4.69977 20.2963C13.9572 28.2416 24.4484 19.3741 21.0278 8.56532Z" fill="white"/>
<path d="M22.607 9.90343C22.7344 10.6778 22.7874 11.4601 22.7599 12.2382C22.7113 13.7884 22.348 15.3227 21.7332 16.7411C21.426 17.4476 21.0617 18.127 20.6393 18.7648C20.4121 19.105 20.5252 19.5743 20.8831 19.773C21.224 19.9644 21.6555 19.843 21.8469 19.5021C23.4838 16.5832 24.1308 13.0171 23.2283 9.76473C23.1084 9.3819 22.5521 9.50983 22.607 9.90343Z" fill="#000088"/>
<path d="M17.6162 22.0928L17.5925 22.103L17.257 22.2465C12.9761 24.035 7.58936 23.2593 4.19598 20.0252C1.05784 16.9968 0.477202 11.8598 2.11745 7.93049C4.61997 1.58488 12.7616 -0.363009 18.1455 3.61011C18.5701 3.9013 19.0172 3.21069 18.5794 2.94027C3.68233 -7.06107 -8.47991 17.4717 7.63703 23.7234C10.9986 24.8753 14.8986 24.6432 17.9732 22.8043C18.3995 22.5378 18.0753 21.9102 17.6162 22.0928Z" fill="#000088"/>
<path d="M23.6091 2.60598C23.2592 2.43227 22.8347 2.57509 22.661 2.92502C22.6679 2.90125 22.6799 2.878 22.6957 2.85967C22.6858 2.87256 22.6303 2.94536 22.6193 2.95984C20.9882 5.10892 19.1199 7.44025 17.5033 9.59444C16.4158 10.8768 13.0412 17.1287 11.2717 16.1738C10.577 15.8281 10.0433 15.1788 9.52506 14.6041C8.4963 13.3366 7.34045 12.1547 6.25684 10.9433C6.06128 10.7148 5.70428 10.7045 5.49634 10.9222C5.29872 11.1269 5.30448 11.453 5.50914 11.6506C6.28417 12.3948 7.30741 13.3706 8.01419 14.1594C8.48378 14.702 8.94569 15.2584 9.43736 15.7845C10.5809 17.1429 12.0865 17.7459 13.5186 16.3806C15.4346 14.5809 16.8086 12.3105 18.3941 10.2485C20.0849 8.12388 22.0542 5.8262 23.7988 3.73952C24.1295 3.39044 24.0432 2.82217 23.6091 2.60598Z" fill="#000088"/>
</g>
<defs>
<clipPath id="clip0_521_627">
<rect width="24" height="24" fill="white" transform="translate(0 0.5)"/>
</clipPath>
</defs>
</svg>
