<svg width="16" height="16" viewBox="0 0 16 16" fill="none" xmlns="http://www.w3.org/2000/svg">
<g clip-path="url(#clip0_9913_1862)">
<path d="M13.4946 1.99037L14.6415 0.843506L16.0002 2.20229L14.8533 3.34915L13.4946 1.99037Z" fill="white"/>
<path d="M8.57666 8.26736L10.1007 8.10146L10.49 7.71217L9.1316 6.35376L8.74231 6.74305L8.57666 8.26736Z" fill="white"/>
<path d="M9.79443 5.69095L12.8315 2.65393L14.1901 4.01247L11.153 7.04949L9.79443 5.69095Z" fill="white"/>
<path d="M10.5305 8.99787L7.73337 9.30232H4.73541V8.36469H7.62265L7.76523 7.05449H2.93558V6.11674H8.04233L11.3695 2.78955H1.86904C0.838389 2.78955 0 3.62794 0 4.65847V10.6595C0 11.6902 0.838389 12.5286 1.86904 12.5286H2.37466V15.2129L6.38411 12.5286H11.6043C12.6348 12.5286 13.4732 11.6902 13.4732 10.6595V6.05521L10.5305 8.99787ZM3.97746 9.30232H2.93558V8.36469H3.97746V9.30232Z" fill="white"/>
</g>
<defs>
<clipPath id="clip0_9913_1862">
<rect width="16" height="16" fill="white"/>
</clipPath>
</defs>
</svg>
