<svg width="16" height="14" viewBox="0 0 16 14" fill="none" xmlns="http://www.w3.org/2000/svg">
<path d="M5.5 13.75H1.875C0.841125 13.75 0 12.9089 0 11.875V1.875C0 0.841125 0.841125 0 1.875 0H5.5C6.53387 0 7.375 0.841125 7.375 1.875V11.875C7.375 12.9089 6.53387 13.75 5.5 13.75Z" fill="#4B5563"/>
<path d="M14.125 6.25H10.5C9.46613 6.25 8.625 5.40887 8.625 4.375V1.875C8.625 0.841125 9.46613 0 10.5 0H14.125C15.1589 0 16 0.841125 16 1.875V4.375C16 5.40887 15.1589 6.25 14.125 6.25Z" fill="#4B5563"/>
<path d="M14.125 13.75H10.5C9.46613 13.75 8.625 12.9089 8.625 11.875V9.375C8.625 8.34113 9.46613 7.5 10.5 7.5H14.125C15.1589 7.5 16 8.34113 16 9.375V11.875C16 12.9089 15.1589 13.75 14.125 13.75Z" fill="#4B5563"/>
</svg>
