<svg width="16" height="16" viewBox="0 0 16 16" fill="none" xmlns="http://www.w3.org/2000/svg">
<path d="M5.5 14.875H1.875C0.841125 14.875 0 14.0339 0 13V3C0 1.96613 0.841125 1.125 1.875 1.125H5.5C6.53387 1.125 7.375 1.96613 7.375 3V13C7.375 14.0339 6.53387 14.875 5.5 14.875Z" fill="white"/>
<path d="M14.125 7.375H10.5C9.46613 7.375 8.625 6.53387 8.625 5.5V3C8.625 1.96613 9.46613 1.125 10.5 1.125H14.125C15.1589 1.125 16 1.96613 16 3V5.5C16 6.53387 15.1589 7.375 14.125 7.375Z" fill="white"/>
<path d="M14.125 14.875H10.5C9.46613 14.875 8.625 14.0339 8.625 13V10.5C8.625 9.46613 9.46613 8.625 10.5 8.625H14.125C15.1589 8.625 16 9.46613 16 10.5V13C16 14.0339 15.1589 14.875 14.125 14.875Z" fill="white"/>
</svg>
