<svg width="18" height="20" viewBox="0 0 18 20" fill="none" xmlns="http://www.w3.org/2000/svg">
<path d="M16.4062 3.125H12.5V2.34375C12.5 1.05141 11.4486 0 10.1562 0H7.03125C5.73891 0 4.6875 1.05141 4.6875 2.34375V3.125H0.78125C0.349766 3.125 0 3.47477 0 3.90625C0 4.33773 0.349766 4.6875 0.78125 4.6875H1.5625V16.0938C1.5625 18.2477 3.31484 20 5.46875 20H11.7188C13.8727 20 15.625 18.2477 15.625 16.0938V7.03125C15.625 6.59977 15.2752 6.25 14.8438 6.25C14.4123 6.25 14.0625 6.59977 14.0625 7.03125V16.0938C14.0625 17.3861 13.0111 18.4375 11.7188 18.4375H5.46875C4.17641 18.4375 3.125 17.3861 3.125 16.0938V4.6875H16.4062C16.8377 4.6875 17.1875 4.33773 17.1875 3.90625C17.1875 3.47477 16.8377 3.125 16.4062 3.125ZM6.25 2.34375C6.25 1.91297 6.60047 1.5625 7.03125 1.5625H10.1562C10.587 1.5625 10.9375 1.91297 10.9375 2.34375V3.125H6.25V2.34375Z" fill="black"/>
<path d="M5.46875 16.875C5.03727 16.875 4.6875 16.5252 4.6875 16.0938V8.59375C4.6875 8.16227 5.03727 7.8125 5.46875 7.8125C5.90023 7.8125 6.25 8.16227 6.25 8.59375V16.0938C6.25 16.5252 5.90023 16.875 5.46875 16.875Z" fill="black"/>
<path d="M8.59375 16.875C8.16227 16.875 7.8125 16.5252 7.8125 16.0938V8.59375C7.8125 8.16227 8.16227 7.8125 8.59375 7.8125C9.02523 7.8125 9.375 8.16227 9.375 8.59375V16.0938C9.375 16.5252 9.02523 16.875 8.59375 16.875Z" fill="black"/>
<path d="M11.7188 16.875C11.2873 16.875 10.9375 16.5252 10.9375 16.0938V8.59375C10.9375 8.16227 11.2873 7.8125 11.7188 7.8125C12.1502 7.8125 12.5 8.16227 12.5 8.59375V16.0938C12.5 16.5252 12.1502 16.875 11.7188 16.875Z" fill="black"/>
</svg>
