<svg width="24" height="20" viewBox="0 0 24 20" fill="none" xmlns="http://www.w3.org/2000/svg">
<path d="M23.2969 13.9327H21.6894C21.3478 11.5931 19.3283 9.79053 16.8953 9.79053C14.4624 9.79053 12.4428 11.5931 12.1012 13.9327H0.703125C0.314812 13.9327 0 14.2475 0 14.6358C0 15.0241 0.314812 15.3389 0.703125 15.3389H12.1012C12.4428 17.6786 14.4624 19.4811 16.8953 19.4811C19.3283 19.4811 21.3478 17.6786 21.6894 15.3389H23.2969C23.6852 15.3389 24 15.0241 24 14.6358C24 14.2475 23.6852 13.9327 23.2969 13.9327ZM16.8953 18.0749C14.999 18.0749 13.4563 16.5321 13.4563 14.6358C13.4563 12.7395 14.999 11.1968 16.8953 11.1968C18.7916 11.1968 20.3344 12.7395 20.3344 14.6358C20.3344 16.5321 18.7916 18.0749 16.8953 18.0749Z" fill="#4B5563"/>
<path d="M0.703125 5.54845H2.31056C2.65219 7.88808 4.67175 9.69061 7.1047 9.69061C9.53761 9.69061 11.5572 7.88808 11.8988 5.54845H23.2969C23.6852 5.54845 24 5.23364 24 4.84533C24 4.45702 23.6852 4.1422 23.2969 4.1422H11.8988C11.5572 1.80253 9.53761 0 7.1047 0C4.67175 0 2.65219 1.80253 2.31056 4.1422H0.703125C0.314812 4.1422 0 4.45702 0 4.84533C0 5.23364 0.314812 5.54845 0.703125 5.54845ZM7.1047 1.40625C9.00098 1.40625 10.5437 2.949 10.5437 4.84533C10.5437 6.74161 9.00098 8.28436 7.1047 8.28436C5.20837 8.28436 3.66562 6.74161 3.66562 4.84533C3.66562 2.949 5.20837 1.40625 7.1047 1.40625Z" fill="#4B5563"/>
</svg>
