<svg width="22" height="22" viewBox="0 0 22 22" fill="none" xmlns="http://www.w3.org/2000/svg">
<path d="M10.9994 21.9979C5.08812 22.1197 -0.120191 16.9112 0.00211156 10.9988C-0.0247804 1.55387 11.2901 -3.50784 18.3192 2.79096C18.6732 3.10697 18.7041 3.65017 18.3881 4.00425C18.0722 4.35832 17.5291 4.38917 17.175 4.07316C11.3055 -1.24904 1.66413 3.06765 1.72044 10.999C1.66408 18.9296 11.3068 23.2474 17.175 17.9246C17.5289 17.6086 18.0722 17.6394 18.3881 17.9935C18.704 18.3476 18.6732 18.8908 18.3192 19.2068C16.3029 21.0067 13.7033 21.9979 10.9994 21.9979ZM18.3494 15.7362L21.2401 12.8934C21.2415 12.892 21.2429 12.8907 21.2443 12.8892C21.7316 12.4033 22 11.7571 22 11.0696C22 10.3821 21.7316 9.73591 21.2443 9.25002C21.2418 9.24752 21.2393 9.24508 21.2368 9.24267L18.3462 6.43018C18.006 6.09918 17.4621 6.10674 17.1312 6.44689C16.8004 6.78705 16.8079 7.33111 17.148 7.66203L20.0342 10.4703C20.1939 10.631 20.2817 10.8437 20.2817 11.0697C20.2817 11.2964 20.1933 11.5096 20.0328 11.6705L17.1447 14.5108C16.8063 14.8435 16.8018 15.3876 17.1345 15.726C17.3026 15.897 17.5248 15.9828 17.7471 15.9828C17.9645 15.9828 18.1821 15.9007 18.3494 15.7362ZM18.6062 10.9989C18.6062 10.5243 18.2216 10.1396 17.747 10.1396H6.10207C4.96333 10.1818 4.96423 11.8163 6.10207 11.8582H17.747C18.2216 11.8582 18.6062 11.4734 18.6062 10.9989Z" fill="black"/>
</svg>
