<svg width="24" height="24" viewBox="0 0 24 24" fill="none" xmlns="http://www.w3.org/2000/svg">
<g clip-path="url(#clip0_9835_12164)">
<path d="M23.0837 0.0385384C23.0723 0.0421478 23.0603 0.037179 23.0491 0.0413509L0.549038 8.47887C0.302522 8.57159 0.128147 8.79471 0.0979126 9.05702C0.0676782 9.31934 0.186507 9.57612 0.40621 9.72237L5.33902 13.0105L7.14361 20.5508C7.14835 20.5706 7.16054 20.5864 7.16686 20.6055C7.32905 21.1001 7.95197 21.2572 8.32463 20.8845L11.8546 17.3545L17.2812 20.9724C17.6744 21.2361 18.2165 21.0392 18.3476 20.5803L23.9726 0.89279C24.1236 0.362914 23.6263 -0.135649 23.0837 0.0385384ZM8.85404 14.3408C8.7376 14.4587 8.70254 14.5543 8.66171 14.703C8.66119 14.7058 8.65998 14.7083 8.65946 14.7111L7.87487 17.5639L6.75699 12.8927L17.6472 5.42538L8.85404 14.3408Z" fill="white"/>
<path d="M4.71588 19.2809C4.44124 19.0063 3.99625 19.0063 3.72161 19.2809L0.205981 22.7966C-0.0686603 23.0712 -0.0686603 23.5162 0.205981 23.7908C0.480669 24.0655 0.92556 24.0655 1.20025 23.7908L4.71588 20.2752C4.99052 20.0006 4.99052 19.5556 4.71588 19.2809Z" fill="white"/>
<path d="M4.71588 15.0622C4.44124 14.7876 3.99625 14.7875 3.72161 15.0622L0.205981 18.5778C-0.0686603 18.8525 -0.0686603 19.2975 0.205981 19.5721C0.480669 19.8468 0.92556 19.8468 1.20025 19.5721L4.71588 16.0565C4.99052 15.7818 4.99052 15.3368 4.71588 15.0622Z" fill="white"/>
</g>
<defs>
<clipPath id="clip0_9835_12164">
<rect width="24" height="24" fill="white"/>
</clipPath>
</defs>
</svg>
