<svg width="24" height="25" viewBox="0 0 24 25" fill="none" xmlns="http://www.w3.org/2000/svg">
<path d="M21.8055 10.396H21V10.3545H12V14.3545H17.6515C16.827 16.683 14.6115 18.3545 12 18.3545C8.6865 18.3545 6 15.668 6 12.3545C6 9.04099 8.6865 6.35449 12 6.35449C13.5295 6.35449 14.921 6.93149 15.9805 7.87399L18.809 5.04549C17.023 3.38099 14.634 2.35449 12 2.35449C6.4775 2.35449 2 6.83199 2 12.3545C2 17.877 6.4775 22.3545 12 22.3545C17.5225 22.3545 22 17.877 22 12.3545C22 11.684 21.931 11.0295 21.8055 10.396Z" fill="#FFC107"/>
<path d="M3.15295 7.69999L6.43845 10.1095C7.32745 7.90849 9.48045 6.35449 12 6.35449C13.5295 6.35449 14.921 6.93149 15.9805 7.87399L18.809 5.04549C17.023 3.38099 14.634 2.35449 12 2.35449C8.15895 2.35449 4.82795 4.52299 3.15295 7.69999Z" fill="#F74C4D"/>
<path d="M12 22.3545C14.583 22.3545 16.93 21.366 18.7045 19.7585L15.6095 17.1395C14.572 17.929 13.3038 18.3559 12 18.3545C9.39903 18.3545 7.19053 16.696 6.35853 14.3815L3.09753 16.894C4.75253 20.1325 8.11353 22.3545 12 22.3545Z" fill="#4CAF50"/>
<path d="M21.8055 10.396H21V10.3545H12V14.3545H17.6515C17.2571 15.4627 16.5467 16.4311 15.608 17.14L15.6095 17.139L18.7045 19.758C18.4855 19.957 22 17.3545 22 12.3545C22 11.684 21.931 11.0295 21.8055 10.396Z" fill="#468FFB"/>
</svg>
