<svg width="136" height="25" viewBox="0 0 136 25" fill="none" xmlns="http://www.w3.org/2000/svg">
<path d="M11.5259 2.27017C11.6782 1.81522 12.3218 1.81522 12.4741 2.27017L14.6376 8.73031C14.7054 8.93256 14.894 9.06958 15.1073 9.0715L21.9198 9.13284C22.3995 9.13717 22.5984 9.74917 22.2128 10.0347L16.7374 14.0886C16.566 14.2155 16.4939 14.4372 16.558 14.6407L18.6049 21.1387C18.749 21.5963 18.2284 21.9746 17.8377 21.6961L12.2902 17.7414C12.1166 17.6176 11.8834 17.6176 11.7098 17.7414L6.16226 21.6961C5.77158 21.9746 5.25098 21.5963 5.39512 21.1387L7.44197 14.6407C7.50605 14.4372 7.43402 14.2155 7.26259 14.0886L1.78721 10.0347C1.4016 9.74917 1.60046 9.13717 2.08023 9.13284L8.89274 9.0715C9.10603 9.06958 9.29462 8.93256 9.36236 8.73031L11.5259 2.27017Z" fill="#FFC107"/>
<path d="M39.5259 2.27017C39.6782 1.81522 40.3218 1.81522 40.4741 2.27017L42.6376 8.73031C42.7054 8.93256 42.894 9.06958 43.1073 9.0715L49.9198 9.13284C50.3995 9.13717 50.5984 9.74917 50.2128 10.0347L44.7374 14.0886C44.566 14.2155 44.4939 14.4372 44.558 14.6407L46.6049 21.1387C46.749 21.5963 46.2284 21.9746 45.8377 21.6961L40.2902 17.7414C40.1166 17.6176 39.8834 17.6176 39.7098 17.7414L34.1623 21.6961C33.7716 21.9746 33.251 21.5963 33.3951 21.1387L35.442 14.6407C35.5061 14.4372 35.434 14.2155 35.2626 14.0886L29.7872 10.0347C29.4016 9.74917 29.6005 9.13717 30.0802 9.13284L36.8927 9.0715C37.106 9.06958 37.2946 8.93256 37.3624 8.73031L39.5259 2.27017Z" fill="#FFC107"/>
<path d="M67.5259 2.27017C67.6782 1.81522 68.3218 1.81522 68.4741 2.27017L70.6376 8.73031C70.7054 8.93256 70.894 9.06958 71.1073 9.0715L77.9198 9.13284C78.3995 9.13717 78.5984 9.74917 78.2128 10.0347L72.7374 14.0886C72.566 14.2155 72.4939 14.4372 72.558 14.6407L74.6049 21.1387C74.749 21.5963 74.2284 21.9746 73.8377 21.6961L68.2902 17.7414C68.1166 17.6176 67.8834 17.6176 67.7098 17.7414L62.1623 21.6961C61.7716 21.9746 61.251 21.5963 61.3951 21.1387L63.442 14.6407C63.5061 14.4372 63.434 14.2155 63.2626 14.0886L57.7872 10.0347C57.4016 9.74917 57.6005 9.13717 58.0802 9.13284L64.8927 9.0715C65.106 9.06958 65.2946 8.93256 65.3624 8.73031L67.5259 2.27017Z" fill="#FFC107"/>
<path d="M95.5259 2.27017C95.6782 1.81522 96.3218 1.81522 96.4741 2.27017L98.6376 8.73031C98.7054 8.93256 98.894 9.06958 99.1073 9.0715L105.92 9.13284C106.4 9.13717 106.598 9.74917 106.213 10.0347L100.737 14.0886C100.566 14.2155 100.494 14.4372 100.558 14.6407L102.605 21.1387C102.749 21.5963 102.228 21.9746 101.838 21.6961L96.2902 17.7414C96.1166 17.6176 95.8834 17.6176 95.7098 17.7414L90.1623 21.6961C89.7716 21.9746 89.251 21.5963 89.3951 21.1387L91.442 14.6407C91.5061 14.4372 91.434 14.2155 91.2626 14.0886L85.7872 10.0347C85.4016 9.74917 85.6005 9.13717 86.0802 9.13284L92.8927 9.0715C93.106 9.06958 93.2946 8.93256 93.3624 8.73031L95.5259 2.27017Z" fill="#FFC107"/>
<path d="M123.763 2.34961C123.839 2.12213 124.161 2.12213 124.237 2.34961L126.4 8.80957C126.502 9.11296 126.786 9.31841 127.105 9.32129L133.918 9.38281C134.157 9.38535 134.257 9.69127 134.064 9.83398L128.589 13.8877C128.332 14.0781 128.223 14.4107 128.319 14.7158L130.366 21.2139C130.438 21.4427 130.178 21.6314 129.982 21.4922L124.436 17.5381C124.175 17.3524 123.825 17.3524 123.564 17.5381L118.018 21.4922C117.822 21.6314 117.562 21.4427 117.634 21.2139L119.681 14.7158C119.777 14.4107 119.668 14.0781 119.411 13.8877L113.936 9.83398C113.743 9.69127 113.843 9.38535 114.082 9.38281L120.895 9.32129C121.214 9.31841 121.498 9.11296 121.6 8.80957L123.763 2.34961Z" stroke="#FFC107" stroke-width="0.5"/>
</svg>
