<svg width="390" height="352" viewBox="0 0 390 352" fill="none" xmlns="http://www.w3.org/2000/svg">
<g clip-path="url(#clip0_524_3918)">
<g filter="url(#filter0_f_524_3918)">
<ellipse cx="153.851" cy="155.748" rx="153.851" ry="155.748" transform="matrix(0.621948 -0.783059 -0.783059 -0.621948 381.187 385)" fill="url(#paint0_linear_524_3918)"/>
</g>
<g filter="url(#filter1_f_524_3918)">
<ellipse cx="104.038" cy="105.234" rx="104.038" ry="105.234" transform="matrix(-1 0 0 1 423.165 -107.113)" fill="#3B1FE7"/>
</g>
<g filter="url(#filter2_f_524_3918)">
<ellipse cx="84.9871" cy="86.018" rx="84.9871" ry="86.018" transform="matrix(-1 0 0 1 452.938 -110)" fill="#FFC1DF"/>
</g>
<g filter="url(#filter3_f_524_3918)">
<path d="M111.937 210.326C79.4521 129.276 130.776 29.495 277.709 1.93315C141.375 57.5526 139.93 149.751 152.595 218.461L111.937 210.326Z" fill="white" fill-opacity="0.85"/>
</g>
<g filter="url(#filter4_f_524_3918)">
<path d="M152.665 172.128C116.814 122.121 135.168 45.2118 231.088 1.65698C147.137 62.6314 161.642 125.969 181.857 170.862L152.665 172.128Z" fill="white" fill-opacity="0.85"/>
</g>
<g filter="url(#filter5_f_524_3918)">
<path d="M262.92 206.847C237.959 142.187 279.707 63.5103 396.609 43.1247C287.836 85.8874 285.753 159.051 295.109 213.716L262.92 206.847Z" fill="url(#paint1_linear_524_3918)" fill-opacity="0.7"/>
</g>
<g filter="url(#filter6_f_524_3918)">
<path d="M312.986 216.439C302.755 147.888 360.685 80.2339 479.216 85.883C363.728 103.846 460.135 196.041 457.321 251.428L312.986 216.439Z" fill="white" fill-opacity="0.8"/>
</g>
<g filter="url(#filter7_f_524_3918)">
<ellipse cx="180.315" cy="215.572" rx="180.315" ry="215.572" transform="matrix(0.894648 -0.446772 -0.95379 -0.300474 308.338 690)" fill="url(#paint2_linear_524_3918)"/>
</g>
<g filter="url(#filter8_f_524_3918)">
<ellipse cx="175.397" cy="70.3686" rx="175.397" ry="70.3686" transform="matrix(-1 0 0 1 379.109 360.93)" fill="#3B1FE7"/>
</g>
<g filter="url(#filter9_f_524_3918)">
<ellipse cx="143.279" cy="57.5191" rx="143.279" ry="57.5191" transform="matrix(-1 0 0 1 429.302 359)" fill="#FFC1DF"/>
</g>
<path d="M193.36 577.286C176.112 531.446 273.775 486.207 473.606 489.984C278.905 501.996 441.436 563.645 436.692 600.682L193.36 577.286Z" fill="white" fill-opacity="0.8"/>
<g filter="url(#filter11_f_524_3918)">
<ellipse cx="-14.1983" cy="139.33" rx="153.851" ry="155.748" transform="rotate(-128.459 -14.1983 139.33)" fill="url(#paint3_linear_524_3918)"/>
</g>
<g filter="url(#filter12_f_524_3918)">
<ellipse cx="49.0122" cy="-2.87945" rx="104.038" ry="105.234" fill="#3B1FE7"/>
</g>
<g filter="url(#filter13_f_524_3918)">
<ellipse cx="0.188789" cy="-24.982" rx="84.9871" ry="86.018" fill="#FFC1DF"/>
</g>
<g filter="url(#filter14_f_524_3918)">
<path d="M215.474 171.128C251.326 121.121 232.972 44.2116 137.051 0.65686C221.003 61.6313 206.497 124.969 186.282 169.862L215.474 171.128Z" fill="white" fill-opacity="0.85"/>
</g>
<g filter="url(#filter15_f_524_3918)">
<path d="M105.219 205.846C130.181 141.187 88.4324 62.5102 -28.4696 42.1246C80.3041 84.8873 82.3865 158.051 73.0307 212.716L105.219 205.846Z" fill="url(#paint4_linear_524_3918)" fill-opacity="0.7"/>
</g>
<g filter="url(#filter16_f_524_3918)">
<path d="M55.1533 215.439C65.384 146.888 7.45431 79.2339 -111.077 84.883C4.41162 102.846 -91.9955 195.041 -89.1816 250.428L55.1533 215.439Z" fill="white" fill-opacity="0.8"/>
</g>
</g>
<defs>
<filter id="filter0_f_524_3918" x="49.8911" y="-136.935" width="610.047" height="609.186" filterUnits="userSpaceOnUse" color-interpolation-filters="sRGB">
<feFlood flood-opacity="0" result="BackgroundImageFix"/>
<feBlend mode="normal" in="SourceGraphic" in2="BackgroundImageFix" result="shape"/>
<feGaussianBlur stdDeviation="75" result="effect1_foregroundBlur_524_3918"/>
</filter>
<filter id="filter1_f_524_3918" x="65.0889" y="-257.113" width="508.076" height="510.468" filterUnits="userSpaceOnUse" color-interpolation-filters="sRGB">
<feFlood flood-opacity="0" result="BackgroundImageFix"/>
<feBlend mode="normal" in="SourceGraphic" in2="BackgroundImageFix" result="shape"/>
<feGaussianBlur stdDeviation="75" result="effect1_foregroundBlur_524_3918"/>
</filter>
<filter id="filter2_f_524_3918" x="132.963" y="-260" width="469.974" height="472.036" filterUnits="userSpaceOnUse" color-interpolation-filters="sRGB">
<feFlood flood-opacity="0" result="BackgroundImageFix"/>
<feBlend mode="normal" in="SourceGraphic" in2="BackgroundImageFix" result="shape"/>
<feGaussianBlur stdDeviation="75" result="effect1_foregroundBlur_524_3918"/>
</filter>
<filter id="filter3_f_524_3918" x="52.5776" y="-48.0669" width="275.131" height="316.528" filterUnits="userSpaceOnUse" color-interpolation-filters="sRGB">
<feFlood flood-opacity="0" result="BackgroundImageFix"/>
<feBlend mode="normal" in="SourceGraphic" in2="BackgroundImageFix" result="shape"/>
<feGaussianBlur stdDeviation="25" result="effect1_foregroundBlur_524_3918"/>
</filter>
<filter id="filter4_f_524_3918" x="85.6465" y="-48.343" width="195.442" height="270.471" filterUnits="userSpaceOnUse" color-interpolation-filters="sRGB">
<feFlood flood-opacity="0" result="BackgroundImageFix"/>
<feBlend mode="normal" in="SourceGraphic" in2="BackgroundImageFix" result="shape"/>
<feGaussianBlur stdDeviation="25" result="effect1_foregroundBlur_524_3918"/>
</filter>
<filter id="filter5_f_524_3918" x="205.97" y="-6.87524" width="240.64" height="270.591" filterUnits="userSpaceOnUse" color-interpolation-filters="sRGB">
<feFlood flood-opacity="0" result="BackgroundImageFix"/>
<feBlend mode="normal" in="SourceGraphic" in2="BackgroundImageFix" result="shape"/>
<feGaussianBlur stdDeviation="25" result="effect1_foregroundBlur_524_3918"/>
</filter>
<filter id="filter6_f_524_3918" x="211.831" y="-14.4478" width="367.386" height="365.876" filterUnits="userSpaceOnUse" color-interpolation-filters="sRGB">
<feFlood flood-opacity="0" result="BackgroundImageFix"/>
<feBlend mode="normal" in="SourceGraphic" in2="BackgroundImageFix" result="shape"/>
<feGaussianBlur stdDeviation="50" result="effect1_foregroundBlur_524_3918"/>
</filter>
<filter id="filter7_f_524_3918" x="-147.306" y="291.292" width="822.705" height="506.749" filterUnits="userSpaceOnUse" color-interpolation-filters="sRGB">
<feFlood flood-opacity="0" result="BackgroundImageFix"/>
<feBlend mode="normal" in="SourceGraphic" in2="BackgroundImageFix" result="shape"/>
<feGaussianBlur stdDeviation="75" result="effect1_foregroundBlur_524_3918"/>
</filter>
<filter id="filter8_f_524_3918" x="-121.684" y="210.93" width="650.793" height="440.737" filterUnits="userSpaceOnUse" color-interpolation-filters="sRGB">
<feFlood flood-opacity="0" result="BackgroundImageFix"/>
<feBlend mode="normal" in="SourceGraphic" in2="BackgroundImageFix" result="shape"/>
<feGaussianBlur stdDeviation="75" result="effect1_foregroundBlur_524_3918"/>
</filter>
<filter id="filter9_f_524_3918" x="-7.25537" y="209" width="586.558" height="415.038" filterUnits="userSpaceOnUse" color-interpolation-filters="sRGB">
<feFlood flood-opacity="0" result="BackgroundImageFix"/>
<feBlend mode="normal" in="SourceGraphic" in2="BackgroundImageFix" result="shape"/>
<feGaussianBlur stdDeviation="75" result="effect1_foregroundBlur_524_3918"/>
</filter>
<filter id="filter11_f_524_3918" x="-319.222" y="-165.263" width="610.047" height="609.186" filterUnits="userSpaceOnUse" color-interpolation-filters="sRGB">
<feFlood flood-opacity="0" result="BackgroundImageFix"/>
<feBlend mode="normal" in="SourceGraphic" in2="BackgroundImageFix" result="shape"/>
<feGaussianBlur stdDeviation="75" result="effect1_foregroundBlur_524_3918"/>
</filter>
<filter id="filter12_f_524_3918" x="-205.026" y="-258.113" width="508.076" height="510.468" filterUnits="userSpaceOnUse" color-interpolation-filters="sRGB">
<feFlood flood-opacity="0" result="BackgroundImageFix"/>
<feBlend mode="normal" in="SourceGraphic" in2="BackgroundImageFix" result="shape"/>
<feGaussianBlur stdDeviation="75" result="effect1_foregroundBlur_524_3918"/>
</filter>
<filter id="filter13_f_524_3918" x="-234.798" y="-261" width="469.974" height="472.036" filterUnits="userSpaceOnUse" color-interpolation-filters="sRGB">
<feFlood flood-opacity="0" result="BackgroundImageFix"/>
<feBlend mode="normal" in="SourceGraphic" in2="BackgroundImageFix" result="shape"/>
<feGaussianBlur stdDeviation="75" result="effect1_foregroundBlur_524_3918"/>
</filter>
<filter id="filter14_f_524_3918" x="87.0508" y="-49.3431" width="195.442" height="270.471" filterUnits="userSpaceOnUse" color-interpolation-filters="sRGB">
<feFlood flood-opacity="0" result="BackgroundImageFix"/>
<feBlend mode="normal" in="SourceGraphic" in2="BackgroundImageFix" result="shape"/>
<feGaussianBlur stdDeviation="25" result="effect1_foregroundBlur_524_3918"/>
</filter>
<filter id="filter15_f_524_3918" x="-78.4697" y="-7.87537" width="240.64" height="270.591" filterUnits="userSpaceOnUse" color-interpolation-filters="sRGB">
<feFlood flood-opacity="0" result="BackgroundImageFix"/>
<feBlend mode="normal" in="SourceGraphic" in2="BackgroundImageFix" result="shape"/>
<feGaussianBlur stdDeviation="25" result="effect1_foregroundBlur_524_3918"/>
</filter>
<filter id="filter16_f_524_3918" x="-211.077" y="-15.4478" width="367.385" height="365.876" filterUnits="userSpaceOnUse" color-interpolation-filters="sRGB">
<feFlood flood-opacity="0" result="BackgroundImageFix"/>
<feBlend mode="normal" in="SourceGraphic" in2="BackgroundImageFix" result="shape"/>
<feGaussianBlur stdDeviation="50" result="effect1_foregroundBlur_524_3918"/>
</filter>
<linearGradient id="paint0_linear_524_3918" x1="113.564" y1="236.24" x2="153.851" y2="311.496" gradientUnits="userSpaceOnUse">
<stop stop-color="white"/>
<stop offset="1" stop-color="#391DE8"/>
</linearGradient>
<linearGradient id="paint1_linear_524_3918" x1="279.127" y1="155.043" x2="490.19" y2="-42.0496" gradientUnits="userSpaceOnUse">
<stop stop-color="white"/>
<stop offset="1" stop-color="white" stop-opacity="0"/>
</linearGradient>
<linearGradient id="paint2_linear_524_3918" x1="133.098" y1="326.982" x2="193.629" y2="422.726" gradientUnits="userSpaceOnUse">
<stop stop-color="white"/>
<stop offset="1" stop-color="#391DE8"/>
</linearGradient>
<linearGradient id="paint3_linear_524_3918" x1="-54.4858" y1="219.823" x2="-14.1983" y2="295.078" gradientUnits="userSpaceOnUse">
<stop stop-color="white"/>
<stop offset="1" stop-color="#391DE8"/>
</linearGradient>
<linearGradient id="paint4_linear_524_3918" x1="89.0125" y1="154.043" x2="-122.05" y2="-43.0497" gradientUnits="userSpaceOnUse">
<stop stop-color="white"/>
<stop offset="1" stop-color="white" stop-opacity="0"/>
</linearGradient>
<clipPath id="clip0_524_3918">
<rect width="390" height="352" fill="white"/>
</clipPath>
</defs>
</svg>
