<svg width="25" height="24" viewBox="0 0 25 24" fill="none" xmlns="http://www.w3.org/2000/svg">
<g clip-path="url(#clip0_524_3957)">
<path d="M21.5277 8.06532C19.4767 -1.31549 5.88595 1.47343 3.54674 9.56251C2.02809 11.1908 3.34495 19.0327 5.19965 19.7963C14.4571 27.7416 24.9483 18.8741 21.5277 8.06532Z" fill="#D6E7FF"/>
<path d="M23.1073 9.40337C23.2347 10.1777 23.2876 10.96 23.2602 11.7381C23.2116 13.2883 22.8482 14.8227 22.2335 16.2411C21.9263 16.9475 21.562 17.6269 21.1395 18.2647C20.9124 18.6049 21.0255 19.0742 21.3833 19.273C21.7243 19.4643 22.1558 19.343 22.3471 19.0021C23.9841 16.0832 24.631 12.517 23.7285 9.26467C23.6086 8.88184 23.0524 9.00976 23.1073 9.40337Z" fill="#0066FF"/>
<path d="M18.1162 21.5928L18.0925 21.603L17.757 21.7465C13.4761 23.535 8.08936 22.7593 4.69598 19.5252C1.55784 16.4968 0.977202 11.3598 2.61745 7.43049C5.11997 1.08488 13.2616 -0.863009 18.6455 3.11011C19.0701 3.4013 19.5172 2.71069 19.0794 2.44027C4.18233 -7.56107 -7.97991 16.9717 8.13703 23.2234C11.4986 24.3753 15.3986 24.1432 18.4732 22.3043C18.8995 22.0378 18.5753 21.4102 18.1162 21.5928Z" fill="#0066FF"/>
<path d="M24.1089 2.10605C23.759 1.93233 23.3345 2.07516 23.1607 2.42508C23.1677 2.40131 23.1796 2.37806 23.1954 2.35973C23.1856 2.37262 23.1301 2.44542 23.119 2.45991C21.488 4.60898 19.6197 6.94031 18.003 9.0945C16.9156 10.3769 13.541 16.6287 11.7715 15.6738C11.0768 15.3282 10.543 14.6788 10.0248 14.1042C8.99605 12.8366 7.84021 11.6548 6.7566 10.4434C6.56104 10.2148 6.20404 10.2045 5.9961 10.4222C5.79847 10.6269 5.80424 10.9531 6.0089 11.1507C6.78393 11.8948 7.80716 12.8707 8.51394 13.6595C8.98354 14.2021 9.44544 14.7585 9.93712 15.2846C11.0807 16.643 12.5863 17.2459 14.0184 15.8807C15.9343 14.0809 17.3084 11.8105 18.8939 9.74859C20.5846 7.62394 22.554 5.32626 24.2986 3.23958C24.6292 2.8905 24.543 2.32223 24.1089 2.10605Z" fill="#0066FF"/>
</g>
<defs>
<clipPath id="clip0_524_3957">
<rect width="24" height="24" fill="white" transform="translate(0.5)"/>
</clipPath>
</defs>
</svg>
