<svg width="18" height="18" viewBox="0 0 18 18" fill="none" xmlns="http://www.w3.org/2000/svg">
<g clip-path="url(#clip0_524_447)">
<path d="M15.5082 12.528C14.4208 11.5979 13.3173 11.0346 12.2433 11.9632L11.6019 12.5245C11.1327 12.9319 10.2603 14.8355 6.88718 10.9552C3.51477 7.07986 5.52163 6.47647 5.99157 6.07257L6.63641 5.51061C7.70481 4.57988 7.30161 3.40821 6.53104 2.20213L6.06602 1.47159C5.29194 0.268312 4.44901 -0.521932 3.37779 0.407395L2.79898 0.913151C2.32554 1.25805 1.00214 2.37914 0.681128 4.50894C0.294786 7.06441 1.51352 9.99077 4.30571 13.2016C7.0944 16.4139 9.82477 18.0274 12.4112 17.9993C14.5606 17.9761 15.8587 16.8227 16.2647 16.4033L16.8457 15.8969C17.9141 14.9683 17.2503 14.0228 16.1622 13.0906L15.5082 12.528Z" fill="#4441E5"/>
</g>
<defs>
<clipPath id="clip0_524_447">
<rect width="18" height="18" fill="white"/>
</clipPath>
</defs>
</svg>
