<svg width="18" height="18" viewBox="0 0 18 18" fill="none" xmlns="http://www.w3.org/2000/svg">
<path d="M14.5827 7.29165C14.5827 10.9324 10.5438 14.724 9.18758 15.8951C9.06123 15.9901 8.90743 16.0415 8.74935 16.0415C8.59127 16.0415 8.43747 15.9901 8.31112 15.8951C6.95487 14.724 2.91602 10.9324 2.91602 7.29165C2.91602 5.74455 3.5306 4.26082 4.62456 3.16686C5.71852 2.07289 7.20225 1.45831 8.74935 1.45831C10.2964 1.45831 11.7802 2.07289 12.8741 3.16686C13.9681 4.26082 14.5827 5.74455 14.5827 7.29165Z" stroke="#030213" stroke-width="1.45833" stroke-linecap="round" stroke-linejoin="round"/>
<path d="M8.75 9.47919C9.95812 9.47919 10.9375 8.49981 10.9375 7.29169C10.9375 6.08356 9.95812 5.10419 8.75 5.10419C7.54188 5.10419 6.5625 6.08356 6.5625 7.29169C6.5625 8.49981 7.54188 9.47919 8.75 9.47919Z" stroke="#030213" stroke-width="1.45833" stroke-linecap="round" stroke-linejoin="round"/>
</svg>
