<svg width="18" height="18" viewBox="0 0 18 18" fill="none" xmlns="http://www.w3.org/2000/svg">
<g clip-path="url(#clip0_524_466)">
<path d="M17.3103 3.67547C16.6196 2.72509 15.41 1.86728 13.9045 1.26013C12.407 0.656289 10.6683 0.32234 9.00861 0.319985C7.34878 0.315836 5.60795 0.64634 4.10832 1.24547C2.60012 1.84809 1.38772 2.70217 0.694507 3.6503C0.0287173 4.56092 -0.163166 5.54245 0.139565 6.48878C0.335983 7.10265 0.908854 7.51573 1.56543 7.51668L3.81371 7.51879C3.81448 7.51879 3.81522 7.51879 3.81596 7.51879C4.26427 7.51875 4.68548 7.32251 4.97172 6.98013C5.25494 6.6414 5.37222 6.19871 5.29361 5.76551C5.29129 5.75279 5.28852 5.74016 5.28532 5.72761L5.16702 5.2677C5.82212 4.95513 7.30642 4.35121 9.00169 4.36081C10.6957 4.36949 12.179 4.97306 12.8349 5.28577L12.7147 5.74308C12.7113 5.75606 12.7084 5.76906 12.706 5.78218C12.6261 6.21513 12.7422 6.65813 13.0244 6.99767C13.3102 7.3415 13.7316 7.539 14.1811 7.53967L16.4294 7.54178C16.4302 7.54178 16.4309 7.54178 16.4316 7.54178C17.087 7.54175 17.66 7.13059 17.8579 6.518C18.1635 5.57191 17.9742 4.58901 17.3103 3.67547Z" fill="#4441E5"/>
<path d="M14.0839 9.83699L12.4073 8.07654C12.3059 7.97008 12.1653 7.90986 12.0183 7.90986H10.9348V7.1778C10.9348 6.88119 10.6944 6.64069 10.3977 6.64069C10.1011 6.64069 9.8606 6.88115 9.8606 7.1778V7.90986H8.14069V7.1778C8.14069 6.88119 7.90022 6.64069 7.60357 6.64069C7.30692 6.64069 7.06645 6.88115 7.06645 7.1778V7.90986H5.98297C5.83599 7.90986 5.6954 7.97012 5.59404 8.07654L3.91744 9.83699C2.60288 11.2173 1.87891 13.0272 1.87891 14.9333V17.143C1.87891 17.4396 2.11937 17.6801 2.41602 17.6801H15.5853C15.8819 17.6801 16.1224 17.4396 16.1224 17.143V14.9333C16.1224 13.0272 15.3984 11.2173 14.0839 9.83699ZM9.00064 15.7168C7.45061 15.7168 6.18959 14.4557 6.18959 12.9057C6.18959 11.3557 7.45064 10.0946 9.00064 10.0946C10.5506 10.0946 11.8117 11.3557 11.8117 12.9057C11.8117 14.4557 10.5506 15.7168 9.00064 15.7168Z" fill="#4441E5"/>
<path d="M9.0005 11.1688C8.04277 11.1688 7.26367 11.948 7.26367 12.9056C7.26367 13.8634 8.04281 14.6425 9.0005 14.6425C9.95819 14.6425 10.7373 13.8634 10.7373 12.9056C10.7373 11.948 9.95819 11.1688 9.0005 11.1688Z" fill="#4441E5"/>
</g>
<defs>
<clipPath id="clip0_524_466">
<rect width="18" height="18" fill="white"/>
</clipPath>
</defs>
</svg>
