<svg width="65" height="68" viewBox="0 0 65 68" fill="none" xmlns="http://www.w3.org/2000/svg">
<g clip-path="url(#clip0_521_720)">
<path d="M15.0733 40.9543L12.8455 49.6173L4.70315 49.7967C2.26978 45.0953 0.889526 39.7162 0.889526 34.0001C0.889526 28.4726 2.18003 23.2601 4.46753 18.6704H4.46928L11.7183 20.0548L14.8938 27.5605C14.2292 29.5789 13.8669 31.7455 13.8669 34.0001C13.8672 36.447 14.2927 38.7914 15.0733 40.9543Z" fill="#FBBB00"/>
<path d="M64.3304 27.7729C64.6979 29.7894 64.8895 31.8718 64.8895 34C64.8895 36.3865 64.6487 38.7144 64.1898 40.9598C62.632 48.6008 58.5617 55.2729 52.923 59.9946L52.9213 59.9927L43.7908 59.5075L42.4985 51.1045C46.24 48.8188 49.164 45.2418 50.7043 40.9598H33.593V27.7729H50.9539H64.3304Z" fill="#518EF8"/>
<path d="M52.9211 59.9928L52.9229 59.9946C47.439 64.5861 40.4728 67.3334 32.8895 67.3334C20.7031 67.3334 10.108 60.2382 4.70312 49.7968L15.0733 40.9543C17.7756 48.4671 24.733 53.8152 32.8895 53.8152C36.3954 53.8152 39.6799 52.8279 42.4983 51.1045L52.9211 59.9928Z" fill="#28B446"/>
<path d="M53.315 8.34071L42.9484 17.1813C40.0315 15.2821 36.5835 14.185 32.8895 14.185C24.5484 14.185 17.4609 19.7783 14.8939 27.5605L4.46928 18.6704H4.46753C9.79328 7.97443 20.522 0.666748 32.8895 0.666748C40.6539 0.666748 47.773 3.54774 53.315 8.34071Z" fill="#F14336"/>
</g>
<defs>
<clipPath id="clip0_521_720">
<rect width="64" height="66.6667" fill="white" transform="translate(0.889526 0.666748)"/>
</clipPath>
</defs>
</svg>
