<svg width="69" height="69" viewBox="0 0 69 69" fill="none" xmlns="http://www.w3.org/2000/svg">
<g clip-path="url(#clip0_521_732)">
<path d="M56.2133 22.9937V38.378C56.2133 44.8017 44.9918 48.2907 34.4053 48.2907C23.8188 48.2907 12.5973 44.8017 12.5973 38.378V22.9937C12.5973 21.9229 13.4693 21.0111 14.5798 21.0111H54.2307C55.3413 21.0111 56.2133 21.9229 56.2133 22.9937Z" fill="#444444"/>
<path d="M56.2133 22.9937V38.378C56.2133 44.8017 44.9918 48.2907 34.4053 48.2907V21.0111H54.2307C55.3413 21.0111 56.2133 21.9229 56.2133 22.9937Z" fill="#292929"/>
<path d="M68.2407 18.5526C68.2407 19.3854 67.7255 20.1387 66.9717 20.4159L35.1188 32.3112C34.8813 32.3907 34.6433 32.4304 34.4053 32.4304C34.1673 32.4304 33.9293 32.3907 33.6918 32.3112L1.83887 20.4159V16.6888L33.6918 4.79355C33.9293 4.71456 34.1673 4.6748 34.4053 4.6748C34.6433 4.6748 34.8813 4.71456 35.1188 4.79355L66.9717 16.6888C67.7255 16.9666 68.2407 17.7199 68.2407 18.5526Z" fill="#6E6E6E"/>
<path d="M68.2407 18.5526C68.2407 19.3854 67.7255 20.1387 66.9717 20.4159L35.1188 32.3112C34.8813 32.3907 34.6433 32.4304 34.4053 32.4304V4.6748C34.6433 4.6748 34.8813 4.71456 35.1188 4.79355L66.9717 16.6888C67.7255 16.9666 68.2407 17.7199 68.2407 18.5526Z" fill="#5A5A5A"/>
<path d="M36.3878 18.5526C36.3878 19.6626 35.5158 20.5352 34.4053 20.5352H4.53492V49.9558L8.38075 61.5341C8.73802 62.5646 8.18249 63.7149 7.15198 64.0319C6.0812 64.3892 4.97118 63.8336 4.65418 62.8026L4.53492 62.4464C4.37642 63.3979 3.54364 64.1511 2.55237 64.1511C1.44183 64.1511 0.569824 63.2786 0.569824 62.1686V18.5526C0.569824 17.4421 1.44183 16.5701 2.55237 16.5701H34.4053C35.5158 16.5701 36.3878 17.4421 36.3878 18.5526Z" fill="#FDBF00"/>
</g>
<defs>
<clipPath id="clip0_521_732">
<rect width="67.6709" height="67.6709" fill="white" transform="translate(0.569824 0.577515)"/>
</clipPath>
</defs>
</svg>
