<svg width="69" height="68" viewBox="0 0 69 68" fill="none" xmlns="http://www.w3.org/2000/svg">
<g clip-path="url(#clip0_521_744)">
<path d="M19.3976 61.8957V66.0236C19.3976 67.118 20.2852 68.0051 21.3801 68.0051H34.5839L39.2805 57.676L34.5839 48.4709C34.5839 48.4709 33.2503 46.7616 32.6013 46.8462C29.2006 47.2887 26.1528 48.8566 23.8451 51.1631C21.0973 53.9092 19.3976 57.7043 19.3976 61.8957Z" fill="#6AABFF"/>
<path d="M49.7702 61.8957V66.0236C49.7702 67.118 48.8825 68.0051 47.7876 68.0051H34.5839V48.4709C34.5839 48.4709 35.9175 46.7616 36.5664 46.8462C39.9671 47.2887 43.015 48.8566 45.3227 51.1631C48.0705 53.9092 49.7702 57.7043 49.7702 61.8957Z" fill="#5980FF"/>
<path d="M67.8509 22.3056L64.2876 25.9277L65.0397 30.9513C65.1494 31.6818 64.8428 32.4136 64.244 32.8482C63.8991 33.0978 63.4907 33.2259 63.0796 33.2259C62.7769 33.2259 62.4743 33.1572 62.1941 33.0172L57.6474 30.7505L53.0995 33.0172C52.4373 33.3475 51.6469 33.2814 51.0495 32.8482C50.4508 32.4136 50.1442 31.6818 50.2539 30.9513L51.0059 25.9277L47.4426 22.3056C46.9245 21.7785 46.7434 21.0072 46.9708 20.3045C47.1994 19.6017 47.8008 19.0852 48.5304 18.9624L53.5422 18.1248L55.8883 13.6204C56.2293 12.9639 56.9073 12.5531 57.6474 12.5531C58.3863 12.5531 59.0643 12.9639 59.4053 13.6204L61.7513 18.1248L66.7632 18.9624C67.4928 19.0852 68.0941 19.6017 68.3228 20.3045C68.5501 21.0071 68.369 21.7785 67.8509 22.3056Z" fill="#FF9922"/>
<path d="M21.7251 22.3056L18.1618 25.9277L18.9138 30.9513C19.0235 31.6818 18.7169 32.4136 18.1182 32.8482C17.7732 33.0978 17.3648 33.2259 16.9538 33.2259C16.6511 33.2259 16.3484 33.1572 16.0682 33.0172L11.5203 30.7505L6.97363 33.0172C6.31146 33.3475 5.52108 33.2814 4.92367 32.8482C4.32494 32.4136 4.01831 31.6818 4.12801 30.9513L4.88006 25.9277L1.31676 22.3056C0.798657 21.7785 0.617584 21.0072 0.844916 20.3045C1.07357 19.6017 1.67494 19.0852 2.40452 18.9624L7.41639 18.1248L9.76241 13.6204C10.1034 12.9639 10.7814 12.5531 11.5203 12.5531C12.2604 12.5531 12.9384 12.9639 13.2794 13.6204L15.6255 18.1248L20.6373 18.9624C21.3669 19.0852 21.9683 19.6017 22.1969 20.3045C22.4243 21.0071 22.2432 21.7785 21.7251 22.3056Z" fill="#FFBB17"/>
<path d="M34.5839 0.334229L41.8532 10.7099L34.5839 19.5275L29.65 21.9871C28.9878 22.3174 28.1974 22.2513 27.6 21.818C27.0013 21.3834 26.6946 20.6516 26.8043 19.9211L27.6198 14.4708L23.7552 10.541C23.2358 10.0139 23.0547 9.24247 23.2833 8.53985C23.512 7.83724 24.1121 7.31926 24.8416 7.1978L30.2804 6.289L32.8247 1.4015C33.167 0.745012 33.845 0.334229 34.5839 0.334229Z" fill="#FFBB17"/>
<path d="M34.5839 31.8282L39.2805 39.578L34.5839 46.718C29.3962 46.718 25.1906 42.5147 25.1906 37.3299C25.1906 35.7949 25.5593 34.3473 26.2109 33.0685C28.3824 35.1558 34.5839 31.8282 34.5839 31.8282Z" fill="#FFCCBD"/>
<path d="M43.9772 37.3299C43.9772 42.5147 39.7715 46.718 34.5839 46.718V31.8282C34.5839 31.8282 40.7853 35.1558 42.9568 33.0687C43.6084 34.3473 43.9772 35.7951 43.9772 37.3299Z" fill="#FFBDA9"/>
<path d="M34.5839 27.9421L38.1094 31.8283L34.5839 36.4397C31.3325 36.4397 28.3825 35.1558 26.2109 33.0687C27.7666 30.0253 30.932 27.9421 34.5839 27.9421Z" fill="#8C4D4D"/>
<path d="M42.9568 33.0687C40.7853 35.1558 37.8352 36.4397 34.5839 36.4397V27.942C38.2357 27.9421 41.4012 30.0253 42.9568 33.0687Z" fill="#733333"/>
<path d="M34.5839 46.718L35.8503 50.4678L34.5839 55.5499C33.4895 55.5499 32.6013 54.6622 32.6013 53.5685V46.8462C33.2503 46.7616 33.9124 46.718 34.5839 46.718Z" fill="#E6F2FF"/>
<path d="M36.5664 46.8462V53.5685C36.5664 54.6622 35.6782 55.5499 34.5839 55.5499V46.718C35.2553 46.718 35.9175 46.7616 36.5664 46.8462Z" fill="#CCE6FF"/>
<path d="M45.4125 10.5412L41.5479 14.471L42.3634 19.9213C42.4731 20.6518 42.1664 21.3836 41.5677 21.8182C41.2227 22.0678 40.8143 22.1959 40.402 22.1959C40.1006 22.1959 39.798 22.1272 39.5178 21.9872L34.5839 19.5277V0.334229C35.3227 0.334229 36.0007 0.745012 36.343 1.4015L38.8873 6.289L44.3261 7.1978C45.0557 7.3194 45.6557 7.83711 45.8844 8.53985C46.113 9.2426 45.932 10.0142 45.4125 10.5412Z" fill="#FF9922"/>
</g>
<defs>
<clipPath id="clip0_521_744">
<rect width="67.6709" height="67.6709" fill="white" transform="translate(0.748413 0.334229)"/>
</clipPath>
</defs>
</svg>
