<svg width="56" height="57" viewBox="0 0 56 57" fill="none" xmlns="http://www.w3.org/2000/svg">
<path d="M3.37122 23.11L-0.00897217 19.7298V17.1947C-0.00897217 16.728 0.369384 16.3496 0.836076 16.3496H2.52617C2.99286 16.3496 3.37122 16.728 3.37122 17.1947V23.11Z" fill="#D0CDCD"/>
<path d="M20.2722 19.7297H13.5118L10.1316 29.8703H20.2722V19.7297Z" fill="#464342"/>
<path d="M-0.00897217 19.7297V26.4901L13.5118 29.8703V19.7297H-0.00897217Z" fill="#625F5E"/>
<path d="M10.1316 46.7714L13.5118 56.9119H16.892L20.2722 46.7714H10.1316Z" fill="#D0CDCD"/>
<path d="M-0.00897217 50.1516V56.0669C-0.00897217 56.5336 0.369384 56.9119 0.836076 56.9119H13.5118V46.7714L-0.00897217 50.1516Z" fill="#E7E6E6"/>
<path d="M20.2722 26.4902H13.5118L10.1316 38.3209L13.5118 50.1516H20.2722V26.4902Z" fill="#FF835D"/>
<path d="M13.5118 26.4902H-0.00897217V50.1516H13.5118V46.7714L11.8217 43.3912L13.5118 40.011V36.6308L11.8217 33.2506L13.5118 29.8704V26.4902Z" fill="#FC9F63"/>
<path d="M52.6093 23.11L55.9895 19.7298V17.1947C55.9895 16.728 55.6111 16.3496 55.1445 16.3496H53.4544C52.9877 16.3496 52.6093 16.728 52.6093 17.1947V23.11Z" fill="#B8B4B3"/>
<path d="M55.9895 19.7297H52.6093L49.2291 29.8703L55.9895 26.4901V19.7297Z" fill="#464342"/>
<path d="M35.7084 19.7297H52.6093V29.8703H35.7084V19.7297Z" fill="#625F5E"/>
<path d="M55.9895 50.1516L49.2291 46.7714L52.6093 56.9119H55.1445C55.6112 56.9119 55.9895 56.5336 55.9895 56.0669V50.1516Z" fill="#B8B4B3"/>
<path d="M35.7084 46.7714L39.0886 56.9119H52.6093V46.7714H35.7084Z" fill="#D0CDCD"/>
<path d="M52.6093 26.4902L49.2291 38.3209L52.6093 50.1516H55.9895V26.4902H52.6093Z" fill="#FC6356"/>
<path d="M50.9192 43.3912L52.6093 40.011V36.6308L50.9192 33.2506L52.6093 29.8704V26.4902H35.7084V50.1516H52.6093V46.7714L50.9192 43.3912Z" fill="#FF835D"/>
<path d="M27.9903 9.36389L35.7084 56.9119H39.0886V16.8162C39.0886 16.5258 38.9395 16.2558 38.6937 16.1011L27.9903 9.36389Z" fill="#FC9F63"/>
<path d="M35.7084 16.3496L27.9903 9.36389L17.2869 16.1011C17.0411 16.2558 16.892 16.5258 16.892 16.8162V56.9119H20.2722L35.7084 33.2506V29.8704L34.7506 26.3071L35.7084 22.7438V16.3496Z" fill="#F9BB69"/>
<path d="M30.6381 51.8416V55.2217L32.3282 56.9118H35.7084V53.5316L30.6381 51.8416Z" fill="#9C9897"/>
<path d="M20.2722 53.5316V56.9118H32.3282V51.8416L20.2722 53.5316Z" fill="#B8B4B3"/>
<path d="M28.948 46.7714L30.6381 51.8416L32.3282 53.5317H35.7084V50.1516L28.948 46.7714Z" fill="#B8B4B3"/>
<path d="M20.2722 50.1515V53.5317H32.3282V48.4614L20.2722 50.1515Z" fill="#D0CDCD"/>
<path d="M32.3282 33.2506L27.2579 41.7011L32.3282 50.1516H35.7083V33.2506H32.3282Z" fill="#86E0FF"/>
<path d="M27.9903 33.2506L24.6101 41.7011L27.9903 50.1516H32.3282V33.2506H27.9903Z" fill="#C3EFFF"/>
<path d="M20.2722 33.2506H27.9903V50.1516H20.2722V33.2506Z" fill="white"/>
<path d="M3.37122 40.011H6.75141V46.7714H3.37122V40.011Z" fill="white"/>
<path d="M10.1316 40.011H13.5118V46.7714H10.1316V40.011Z" fill="white"/>
<path d="M3.37122 29.8704H6.75141V36.6307H3.37122V29.8704Z" fill="white"/>
<path d="M10.1316 29.8704H13.5118V36.6307H10.1316V29.8704Z" fill="white"/>
<path d="M42.4688 40.011H45.8489V46.7714H42.4688V40.011Z" fill="white"/>
<path d="M49.2291 40.011H52.6093V46.7714H49.2291V40.011Z" fill="white"/>
<path d="M42.4688 29.8704H45.8489V36.6307H42.4688V29.8704Z" fill="white"/>
<path d="M49.2291 29.8704H52.6093V36.6307H49.2291V29.8704Z" fill="white"/>
<path d="M29.117 2.60352L31.3705 4.85698C31.3705 5.79036 32.1272 6.54707 33.0606 6.54707H33.9056C34.3723 6.54707 34.7507 6.16872 34.7507 5.70202V3.44856C34.7507 2.98187 34.3723 2.60352 33.9056 2.60352H29.117Z" fill="#F72349"/>
<path d="M29.6804 0.913452H27.9903V4.85701H31.3705V2.60355C31.3705 1.67016 30.6138 0.913452 29.6804 0.913452Z" fill="#FA4350"/>
<path d="M29.6804 29.8703H35.7084V26.4901L32.6944 24.8L29.6804 26.4901V29.8703Z" fill="#FC9F63"/>
<path d="M32.6944 19.7297C31.0297 19.7297 29.6804 21.0791 29.6804 22.7437V26.4901H35.7084V22.7437C35.7084 21.0791 34.359 19.7297 32.6944 19.7297Z" fill="white"/>
<path d="M20.2722 29.8703H26.3002V26.4901L23.2862 24.8L20.2722 26.4901V29.8703Z" fill="#FC9F63"/>
<path d="M23.2862 19.7297C21.6215 19.7297 20.2722 21.0791 20.2722 22.7437V26.4901H26.3002V22.7437C26.3002 21.0791 24.9508 19.7297 23.2862 19.7297Z" fill="white"/>
<path d="M28.8354 9.89581V0.913407C28.8354 0.446603 28.4571 0.0683594 27.9903 0.0683594C27.5236 0.0683594 27.1453 0.446603 27.1453 0.913407V9.89581H28.8354Z" fill="#B8B4B3"/>
</svg>
